<svg width="512" height="512" viewBox="0 0 512 512" fill="none" xmlns="http://www.w3.org/2000/svg">
<path d="M289 271C289 383.942 236.617 451.5 172 451.5C107.383 451.5 55 383.942 55 271C55 158.058 107.383 89.5 172 89.5C236.617 89.5 289 158.058 289 271Z" fill="#328D2F"/>
<path d="M368 295C368 407.942 315.617 475.5 251 475.5C186.383 475.5 134 407.942 134 295C134 182.058 186.383 113.5 251 113.5C315.617 113.5 368 182.058 368 295Z" fill="#328D2F"/>
<path d="M371.668 245.5C371.668 358.442 319.285 426 254.668 426C190.051 426 137.667 358.442 137.667 245.5C137.667 132.558 190.051 64 254.668 64C319.285 64 371.668 132.558 371.668 245.5Z" fill="#328D2F"/>
<path d="M289 271C289 383.942 236.617 451.5 172 451.5C107.383 451.5 55 383.942 55 271C55 158.058 107.383 89.5 172 89.5C236.617 89.5 289 158.058 289 271Z" fill="#328D2F"/>
<path d="M289 271C289 383.942 236.617 451.5 172 451.5C107.383 451.5 55 383.942 55 271C55 158.058 107.383 89.5 172 89.5C236.617 89.5 289 158.058 289 271Z" fill="#53A850"/>
<path d="M368 295C368 407.942 315.617 475.5 251 475.5C186.383 475.5 134 407.942 134 295C134 182.058 186.383 113.5 251 113.5C315.617 113.5 368 182.058 368 295Z" fill="#328D2F"/>
<path d="M456 277.202C456 390.144 403.617 457.702 339 457.702C274.383 457.702 222 390.144 222 277.202C222 164.26 274.383 95.7021 339 95.7021C403.617 95.7021 456 164.26 456 277.202Z" fill="#328D2F"/>
<path d="M456 277.202C456 390.144 403.617 457.702 339 457.702C274.383 457.702 222 390.144 222 277.202C222 164.26 274.383 95.7021 339 95.7021C403.617 95.7021 456 164.26 456 277.202Z" fill="#328D2F"/>
<path d="M456 277.202C456 390.144 403.617 457.702 339 457.702C274.383 457.702 222 390.144 222 277.202C222 164.26 274.383 95.7021 339 95.7021C403.617 95.7021 456 164.26 456 277.202Z" fill="#53A850"/>
<path d="M368 295C368 407.942 315.617 475.5 251 475.5C186.383 475.5 134 407.942 134 295C134 182.058 186.383 113.5 251 113.5C315.617 113.5 368 182.058 368 295Z" fill="#328D2F"/>
<path d="M368 295C368 407.942 315.617 475.5 251 475.5C186.383 475.5 134 407.942 134 295C134 182.058 186.383 113.5 251 113.5C315.617 113.5 368 182.058 368 295Z" fill="#328D2F"/>
<path d="M368 295C368 407.942 315.617 475.5 251 475.5C186.383 475.5 134 407.942 134 295C134 182.058 186.383 113.5 251 113.5C315.617 113.5 368 182.058 368 295Z" fill="#5ABE56"/>
<path d="M253 112C254.618 72.1537 284.341 44.7307 299 36" stroke="#5ABE56" stroke-width="15" stroke-linecap="round"/>
</svg>
