<svg width="512" height="512" viewBox="0 0 512 512" fill="none" xmlns="http://www.w3.org/2000/svg">
<path d="M408.089 254.155C408.089 368.754 327.528 448.155 251.589 448.155C175.649 448.155 56.9322 377.155 123.589 254.155C190.245 131.155 192.438 80.6549 270.589 65.6548C348.739 50.6548 408.089 139.556 408.089 254.155Z" fill="#F1CD85"/>
<path d="M179.842 267.958L160.842 254.458M238.842 143.958L221.918 128.09M310.342 242L283.342 225.589M239.766 201.326L217.342 209.458M264.342 299.458L241.918 307.589M329.842 128.09L310.342 144.09M186.342 320.458L166.842 336.458" stroke="#4B1F06" stroke-opacity="0.4" stroke-width="10" stroke-linecap="round"/>
<path d="M367.766 286.958L347.842 276.589M309.342 375.457L286.918 383.589M361.5 172.09L342 188.09M224.5 367.589L205 383.589" stroke="#4B1F06" stroke-opacity="0.4" stroke-width="10" stroke-linecap="round"/>
</svg>
