<svg width="512" height="512" viewBox="0 0 512 512" fill="none" xmlns="http://www.w3.org/2000/svg">
<path d="M189.417 128.006C152.391 105.974 137.809 91.068 120.248 110.645C106.839 134.582 136.945 169.124 173.971 191.156C210.996 213.188 232.719 276.878 246.128 252.942C259.537 229.005 226.442 150.037 189.417 128.006Z" fill="#67C363"/>
<path d="M289.128 28.1442C264.716 7.45916 236.086 8.56729 218.884 68.4063C218.884 68.4063 203.167 151.405 218.884 185.498C244.623 200.814 236.619 285.952 264.716 235.796C292.813 185.639 314.867 43.4604 289.128 28.1442Z" fill="#67C363"/>
<path d="M318.078 128.745C354.607 107.009 381.31 102 392.981 122.835C404.652 143.67 367.276 166.678 330.747 188.415C294.218 210.152 270.308 268.565 258.637 247.73C246.966 226.895 281.549 150.481 318.078 128.745Z" fill="#67C363"/>
<path d="M234.122 417.906C260.339 402.306 296.872 318.966 316.266 353.587C335.66 388.208 310.606 438.504 284.389 454.105C255.001 464.078 263.244 515.481 251.418 481.498C228.839 437.173 205.451 458.168 234.122 417.906Z" fill="#E64175"/>
<path d="M361.084 335.595C361.084 396.795 312.947 463.399 253.568 463.399C194.188 463.399 146.051 396.795 146.051 335.595C146.051 274.395 194.188 224.782 253.568 224.782C312.947 224.782 361.084 274.395 361.084 335.595Z" fill="#E64175"/>
<path d="M216.654 409.47C210.681 416.981 210.203 426.831 185.833 432.002L191.567 437.543L196.943 441.975L203.035 447.147L210.203 451.21L217.012 454.904L225.255 458.597C234.097 461.235 241.876 466.746 247.435 474.308L247.834 474.85L252.134 484.823L257.51 495.166L261.452 484.454L265.395 473.372L274.354 461.183L286.181 456.75L298.366 451.21L310.91 441.975L322.02 432.002L298.366 405.407L257.51 432.002C257.51 432.002 242.099 421.29 238.874 420.552C235.648 419.813 216.654 409.47 216.654 409.47Z" fill="#FDDBE4"/>
<path d="M185.474 298.991C185.474 296.052 187.431 293.512 190.234 292.966C199.494 291.161 221.757 287.576 252.493 287.576C283.228 287.576 305.491 291.161 314.752 292.966C317.554 293.512 319.511 296.052 319.511 298.991C319.511 303.015 315.938 306.066 312.085 305.419C300.908 303.538 278.299 300.381 252.493 300.381C226.686 300.381 204.077 303.538 192.9 305.419C189.047 306.066 185.474 303.015 185.474 298.991Z" fill="#AD1B49"/>
<path d="M191.208 348.357C191.208 345.479 193.081 342.983 195.815 342.402C204.396 340.579 224.498 337.072 252.134 337.072C279.771 337.072 299.872 340.579 308.454 342.402C311.187 342.983 313.06 345.479 313.06 348.357C313.06 352.418 309.4 355.475 305.52 354.77C295.107 352.876 275.002 349.877 252.134 349.877C229.267 349.877 209.162 352.876 198.749 354.77C194.869 355.475 191.208 352.418 191.208 348.357Z" fill="#AD1B49"/>
</svg>
