<svg width="512" height="512" viewBox="0 0 512 512" fill="none" xmlns="http://www.w3.org/2000/svg">
<g clip-path="url(#clip0_98_158)">
<path d="M260.131 188.723C260.131 232.041 257.196 271.515 227.115 271.515C197.033 271.515 181.697 232.041 181.697 188.723C181.697 145.405 133.85 95.0381 163.932 95.0381C194.013 95.0381 260.131 145.405 260.131 188.723Z" fill="#67C363"/>
<path d="M262.31 175.651C262.31 218.969 255.688 271.515 285.769 271.515C315.851 271.515 325.493 234.22 325.493 190.902C325.493 147.584 379.034 95.0381 348.953 95.0381C318.871 95.0381 262.31 132.333 262.31 175.651Z" fill="#67C363"/>
<path d="M277.226 180.009C277.226 223.326 285.855 264.979 255.773 264.979C225.692 264.979 233.651 223.326 233.651 180.009C233.651 136.691 225.692 58 255.773 58C285.855 58 277.226 136.691 277.226 180.009Z" fill="#67C363"/>
<path d="M255.5 454C356.292 454 438 386.843 438 304C438 221.157 356.292 154 255.5 154C154.708 154 73 221.157 73 304C73 386.843 154.708 454 255.5 454Z" fill="#E96D5C"/>
<path d="M339 196C376.2 223.2 387.833 258.667 389 273" stroke="white" stroke-opacity="0.7" stroke-width="10" stroke-linecap="round"/>
<path d="M393.298 293.986C393.732 297.57 393.562 302.179 393.423 304.035" stroke="white" stroke-opacity="0.7" stroke-width="10" stroke-linecap="round"/>
</g>
<defs>
<clipPath id="clip0_98_158">
<rect width="365" height="396" fill="white" transform="translate(73 58)"/>
</clipPath>
</defs>
</svg>
