<svg width="512" height="512" viewBox="0 0 512 512" fill="none" xmlns="http://www.w3.org/2000/svg">
<path d="M260.796 160.723C260.796 204.041 257.861 243.515 227.78 243.515C197.698 243.515 182.362 204.041 182.362 160.723C182.362 117.405 134.515 67.0381 164.597 67.0381C194.678 67.0381 260.796 117.405 260.796 160.723Z" fill="#67C363"/>
<path d="M262.975 147.651C262.975 190.969 256.353 243.515 286.434 243.515C316.516 243.515 326.158 206.22 326.158 162.902C326.158 119.584 379.699 67.0381 349.618 67.0381C319.536 67.0381 262.975 104.333 262.975 147.651Z" fill="#67C363"/>
<path d="M277.891 152.009C277.891 195.326 286.52 236.979 256.438 236.979C226.357 236.979 234.316 195.326 234.316 152.009C234.316 108.691 226.357 30 256.438 30C286.52 30 277.891 108.691 277.891 152.009Z" fill="#67C363"/>
<path d="M190.437 152.009C229.211 131.042 282.055 129.697 320.071 152.009C329.937 157.799 338.845 163.837 346.685 169.668C372.865 189.139 380.763 223.133 371.738 254.487C359.044 298.584 339.277 361.282 320.071 398C288.165 459 265.603 482 254.71 482C243.816 482 222.676 458.5 190.437 398C171.056 361.63 151.749 298.985 139.432 254.8C130.642 223.27 138.631 188.932 164.606 169.014C172.603 162.882 181.373 156.91 190.437 152.009Z" fill="#E9905C"/>
<path d="M188.665 234.854C188.665 231.188 191.017 227.955 194.569 227.049C204.493 224.52 226.395 220 256.205 220C286.016 220 307.918 224.52 317.841 227.049C321.394 227.955 323.746 231.188 323.746 234.854C323.746 240.512 318.316 244.696 312.78 243.522C300.678 240.955 279.764 237.43 256.205 237.43C232.647 237.43 211.733 240.955 199.631 243.522C194.095 244.696 188.665 240.512 188.665 234.854Z" fill="#8D3502" fill-opacity="0.4"/>
<path d="M201.737 297.31C201.737 294.195 203.431 291.354 206.359 290.292C213.444 287.72 229.101 283.557 256.205 283.557C283.31 283.557 298.967 287.72 306.052 290.292C308.98 291.354 310.673 294.195 310.673 297.31C310.673 303.333 304.633 307.696 298.783 306.258C288.872 303.822 273.602 300.987 256.205 300.987C238.809 300.987 223.538 303.822 213.628 306.258C207.778 307.696 201.737 303.333 201.737 297.31Z" fill="#8D3502" fill-opacity="0.4"/>
<path d="M210.665 360.488C210.665 357.536 212.259 354.83 215.003 353.745C221.504 351.174 235.309 347 256.418 347C277.528 347 291.333 351.174 297.833 353.745C300.578 354.83 302.171 357.536 302.171 360.488C302.171 366.44 295.937 370.672 290.2 369.086C281.972 366.812 270.089 364.43 256.418 364.43C242.748 364.43 230.864 366.812 222.636 369.086C216.899 370.672 210.665 366.44 210.665 360.488Z" fill="#8D3502" fill-opacity="0.4"/>
</svg>
